<?xml version="1.0" encoding="UTF-8"?>
<svg id="a" data-name="Ebene 1" xmlns="http://www.w3.org/2000/svg" width="300" height="300" viewBox="0 0 300 300">
  <defs>
    <style>
      .b {
        fill: none;
        stroke: #010101;
        stroke-linecap: round;
        stroke-miterlimit: 10;
        stroke-width: 6px;
      }

      .c, .d {
        stroke-width: 0px;
      }

      .d {
        fill: #010101;
      }
    </style>
  </defs>
  <circle class="c" cx="106.85" cy="85.38" r="21.5"/>
  <path class="d" d="m180.99,190.93c-4.45-18.03-22.35-21-38.21-19.18-12.47,1.87-38.41,5.49-45.19,15.99-9.63,15.42-12.68,34.78-27.98,45.78-17.23,11.86-37.14,21.02-54.13,33.71-.93.64-.28,2.11.78,1.95,10.7-1.58,21.41-3.76,31.99-5.93,35.5-6.14,61.97-19.6,71.08-57.53,13.01-2.25,25.59-6.09,38.47-6.59,2.07,4.79,2.22,10.93,2.81,16.37,1.36,17.53,2.58,36.72,6.9,53.86.22,1.19,1.89,1.14,2.14.04,3.71-17.78,7.74-34.83,10.83-52.68,1.33-8.43,2.55-17.02.5-25.78Z"/>
  <path class="d" d="m114.13,110.87c6.63-1.64,13.12-2.07,19.8-2.65,7.66-.62,14.59-1.67,20.93-6.2,5.94-4.16,11.27-10.19,16.39-15.68,2.01-2.24,6.14-6.72,8.2-8.92,2.76-2.98,5.51-5.96,8.4-8.85.4-.43,1.19.07.92.62-2.92,7.51-6.22,15.22-9.66,22.51-3.68,7.71-7.69,15.54-13.49,22.07-11.7,13.43-33.34,19.52-50.39,15.98-10.46-1.75-11.22-16.08-1.1-18.88h0Z"/>
  <path class="d" d="m80.24,109.87c-5.87-14.92-6.36-31.13-8.39-46.87-1.09-9.85-1.99-19.94-2.75-29.84-.34-5.82-.84-12.23-1.02-18.04,0-.3.22-.55.52-.56.23,0,.43.13.51.33,1.69,3.69,3.31,7.39,4.84,11.11,1.16,2.78,3.4,8.38,4.47,11.19,5.81,14.89,10.89,30.04,15.77,45.24,2.4,7.97,4.18,16.09,3.56,24.52-.77,9.62-13.75,11.68-17.52,2.92h0Z"/>
  <path class="b" d="m289.09,300.5c-.87-12.74-16.86-206.83-156.41-267.86-17.68-7.73-41.95-15.34-73-17.21"/>
</svg>